<svg width="234" height="48" viewBox="0 0 234 48" fill="none" xmlns="http://www.w3.org/2000/svg">
<rect width="233" height="48" transform="translate(0.853027)" fill="#C83C35"/>
<path d="M26.6553 29V16.58H31.3713C34.7553 16.58 36.4473 18.272 36.4473 21.656V23.924C36.4473 27.308 34.7553 29 31.3713 29H26.6553ZM29.2473 26.66H31.5153C33.0753 26.66 33.8553 25.88 33.8553 24.32V21.26C33.8553 19.7 33.0753 18.92 31.5153 18.92H29.2473V26.66ZM38.5079 25.976V19.604C38.5079 17.588 39.5159 16.58 41.5319 16.58H45.6359C47.6519 16.58 48.6599 17.588 48.6599 19.604V25.976C48.6599 27.992 47.6519 29 45.6359 29H41.5319C39.5159 29 38.5079 27.992 38.5079 25.976ZM41.0999 26.12C41.0999 26.48 41.2799 26.66 41.6399 26.66H45.5279C45.8879 26.66 46.0679 26.48 46.0679 26.12V19.46C46.0679 19.1 45.8879 18.92 45.5279 18.92H41.6399C41.2799 18.92 41.0999 19.1 41.0999 19.46V26.12ZM50.1 17.066L50.46 16.58H52.584L54.582 26.66H54.78L56.922 17.768H59.478L61.62 26.66H61.818L63.816 16.58H65.94L66.3 17.066L63.87 29H59.748L58.2 22.43L56.652 29H52.53L50.1 17.066ZM67.921 29V16.58H70.729L75.661 24.734V16.58H78.253V29H75.445L70.513 20.846V29H67.921ZM80.8501 29V16.58H83.4421V26.66H88.8061V29H80.8501ZM90.1714 25.976V19.604C90.1714 17.588 91.1794 16.58 93.1954 16.58H97.2994C99.3154 16.58 100.323 17.588 100.323 19.604V25.976C100.323 27.992 99.3154 29 97.2994 29H93.1954C91.1794 29 90.1714 27.992 90.1714 25.976ZM92.7634 26.12C92.7634 26.48 92.9434 26.66 93.3034 26.66H97.1914C97.5514 26.66 97.7314 26.48 97.7314 26.12V19.46C97.7314 19.1 97.5514 18.92 97.1914 18.92H93.3034C92.9434 18.92 92.7634 19.1 92.7634 19.46V26.12ZM101.584 28.514L105.274 16.58H109.234L112.924 28.514L112.6 29H110.44L109.684 26.48H104.824L104.068 29H101.908L101.584 28.514ZM105.526 24.14H108.982L107.398 18.92H107.11L105.526 24.14ZM114.364 29V16.58H119.08C122.464 16.58 124.156 18.272 124.156 21.656V23.924C124.156 27.308 122.464 29 119.08 29H114.364ZM116.956 26.66H119.224C120.784 26.66 121.564 25.88 121.564 24.32V21.26C121.564 19.7 120.784 18.92 119.224 18.92H116.956V26.66ZM130.361 29V16.58H138.857V18.92H132.953V21.98H138.317V24.32H132.953V29H130.361ZM140.332 25.976V19.604C140.332 17.588 141.34 16.58 143.356 16.58H147.46C149.476 16.58 150.484 17.588 150.484 19.604V25.976C150.484 27.992 149.476 29 147.46 29H143.356C141.34 29 140.332 27.992 140.332 25.976ZM142.924 26.12C142.924 26.48 143.104 26.66 143.464 26.66H147.352C147.712 26.66 147.892 26.48 147.892 26.12V19.46C147.892 19.1 147.712 18.92 147.352 18.92H143.464C143.104 18.92 142.924 19.1 142.924 19.46V26.12ZM152.896 29V16.58H158.944C160.96 16.58 161.968 17.588 161.968 19.604V21.656C161.968 23.156 161.41 24.092 160.294 24.464L162.328 28.46L162.022 29H159.79L157.594 24.68H155.488V29H152.896ZM155.488 22.34H158.836C159.196 22.34 159.376 22.16 159.376 21.8V19.46C159.376 19.1 159.196 18.92 158.836 18.92H155.488V22.34ZM168.173 29V16.58H176.669V18.92H170.765V21.98H176.129V24.32H170.765V29H168.173ZM178.324 29V16.58H184.372C186.388 16.58 187.396 17.588 187.396 19.604V21.656C187.396 23.156 186.838 24.092 185.722 24.464L187.756 28.46L187.45 29H185.218L183.022 24.68H180.916V29H178.324ZM180.916 22.34H184.264C184.624 22.34 184.804 22.16 184.804 21.8V19.46C184.804 19.1 184.624 18.92 184.264 18.92H180.916V22.34ZM189.636 29V16.58H198.132V18.92H192.228V21.44H197.592V23.78H192.228V26.66H198.132V29H189.636ZM200.139 29V16.58H208.635V18.92H202.731V21.44H208.095V23.78H202.731V26.66H208.635V29H200.139Z" fill="white"/>
</svg>
